<mxfile host="app.diagrams.net" modified="2023-10-24T16:19:58.976Z" agent="Mozilla/5.0 (Windows NT 10.0; Win64; x64) AppleWebKit/537.36 (KHTML, like Gecko) Chrome/118.0.0.0 Safari/537.36" etag="rPagTc67vgN-VcApPsve" version="22.0.6" type="google">
  <diagram id="prtHgNgQTEPvFCAcTncT" name="Page-1">
    <mxGraphModel grid="1" page="1" gridSize="10" guides="1" tooltips="1" connect="1" arrows="1" fold="1" pageScale="1" pageWidth="827" pageHeight="1169" math="0" shadow="0">
      <root>
        <mxCell id="0" />
        <mxCell id="1" parent="0" />
        <mxCell id="_wPe-hq4PQfQlqKdEgOh-5" value="&lt;font style=&quot;font-size: 13px;&quot;&gt;Bureau 1 Ã  5&lt;/font&gt;" style="swimlane;horizontal=0;whiteSpace=wrap;html=1;" vertex="1" parent="1">
          <mxGeometry x="-1840" y="20" width="280" height="370" as="geometry" />
        </mxCell>
        <mxCell id="_wPe-hq4PQfQlqKdEgOh-8" value="" style="sketch=0;pointerEvents=1;shadow=0;dashed=0;html=1;strokeColor=none;fillColor=#505050;labelPosition=center;verticalLabelPosition=bottom;verticalAlign=top;outlineConnect=0;align=center;shape=mxgraph.office.devices.workstation_pc;" vertex="1" parent="_wPe-hq4PQfQlqKdEgOh-5">
          <mxGeometry x="30" y="10" width="53" height="59" as="geometry" />
        </mxCell>
        <mxCell id="_wPe-hq4PQfQlqKdEgOh-7" value="" style="sketch=0;pointerEvents=1;shadow=0;dashed=0;html=1;strokeColor=none;fillColor=#505050;labelPosition=center;verticalLabelPosition=bottom;verticalAlign=top;outlineConnect=0;align=center;shape=mxgraph.office.devices.workstation_pc;" vertex="1" parent="_wPe-hq4PQfQlqKdEgOh-5">
          <mxGeometry x="30" y="110" width="53" height="59" as="geometry" />
        </mxCell>
        <mxCell id="_wPe-hq4PQfQlqKdEgOh-6" value="" style="sketch=0;pointerEvents=1;shadow=0;dashed=0;html=1;strokeColor=none;fillColor=#505050;labelPosition=center;verticalLabelPosition=bottom;verticalAlign=top;outlineConnect=0;align=center;shape=mxgraph.office.devices.workstation_pc;" vertex="1" parent="_wPe-hq4PQfQlqKdEgOh-5">
          <mxGeometry x="30" y="200" width="53" height="59" as="geometry" />
        </mxCell>
        <mxCell id="_wPe-hq4PQfQlqKdEgOh-10" value="" style="image;aspect=fixed;perimeter=ellipsePerimeter;html=1;align=center;shadow=0;dashed=0;spacingTop=3;image=img/lib/active_directory/switch.svg;" vertex="1" parent="_wPe-hq4PQfQlqKdEgOh-5">
          <mxGeometry x="210" y="10" width="50" height="50" as="geometry" />
        </mxCell>
        <mxCell id="_wPe-hq4PQfQlqKdEgOh-11" value="" style="points=[[0.03,0.36,0],[0.18,0,0],[0.5,0.34,0],[0.82,0,0],[0.97,0.36,0],[1,0.67,0],[0.975,0.975,0],[0.5,1,0],[0.025,0.975,0],[0,0.67,0]];verticalLabelPosition=bottom;sketch=0;html=1;verticalAlign=top;aspect=fixed;align=center;pointerEvents=1;shape=mxgraph.cisco19.wireless_access_point;fillColor=#005073;strokeColor=none;" vertex="1" parent="_wPe-hq4PQfQlqKdEgOh-5">
          <mxGeometry x="210" y="114.5" width="50" height="50" as="geometry" />
        </mxCell>
        <mxCell id="_wPe-hq4PQfQlqKdEgOh-12" value="" style="points=[[0.22,0.185,0],[0.5,0,0],[0.78,0.185,0],[0.975,0.49,0],[1,0.73,0],[0.975,0.97,0],[0.5,1,0],[0.025,0.97,0],[0,0.73,0],[0.025,0.49,0]];verticalLabelPosition=bottom;sketch=0;html=1;verticalAlign=top;aspect=fixed;align=center;pointerEvents=1;shape=mxgraph.cisco19.printer;fillColor=#005073;strokeColor=none;" vertex="1" parent="_wPe-hq4PQfQlqKdEgOh-5">
          <mxGeometry x="210" y="207" width="50" height="45" as="geometry" />
        </mxCell>
        <mxCell id="_wPe-hq4PQfQlqKdEgOh-13" value="" style="verticalLabelPosition=bottom;html=1;verticalAlign=top;align=center;strokeColor=none;fillColor=#00BEF2;shape=mxgraph.azure.laptop;pointerEvents=1;" vertex="1" parent="_wPe-hq4PQfQlqKdEgOh-5">
          <mxGeometry x="126" y="24.5" width="50" height="30" as="geometry" />
        </mxCell>
        <mxCell id="_wPe-hq4PQfQlqKdEgOh-14" value="" style="verticalLabelPosition=bottom;html=1;verticalAlign=top;align=center;strokeColor=none;fillColor=#00BEF2;shape=mxgraph.azure.tablet;pointerEvents=1;" vertex="1" parent="_wPe-hq4PQfQlqKdEgOh-5">
          <mxGeometry x="126" y="127" width="50" height="37.5" as="geometry" />
        </mxCell>
        <mxCell id="_wPe-hq4PQfQlqKdEgOh-15" value="&lt;span style=&quot;font-size: 14px;&quot;&gt;Salle serveur&lt;/span&gt;" style="swimlane;horizontal=0;whiteSpace=wrap;html=1;" vertex="1" parent="1">
          <mxGeometry x="-1460" y="20" width="260" height="370" as="geometry" />
        </mxCell>
        <mxCell id="_wPe-hq4PQfQlqKdEgOh-18" value="" style="image;html=1;image=img/lib/clip_art/computers/Server_128x128.png" vertex="1" parent="_wPe-hq4PQfQlqKdEgOh-15">
          <mxGeometry x="30" y="180" width="80" height="80" as="geometry" />
        </mxCell>
        <mxCell id="_wPe-hq4PQfQlqKdEgOh-17" value="" style="image;html=1;image=img/lib/clip_art/networking/Router_128x128.png" vertex="1" parent="_wPe-hq4PQfQlqKdEgOh-15">
          <mxGeometry x="30" y="120" width="80" height="80" as="geometry" />
        </mxCell>
        <mxCell id="_wPe-hq4PQfQlqKdEgOh-16" value="" style="image;aspect=fixed;perimeter=ellipsePerimeter;html=1;align=center;shadow=0;dashed=0;spacingTop=3;image=img/lib/active_directory/switch.svg;" vertex="1" parent="_wPe-hq4PQfQlqKdEgOh-15">
          <mxGeometry x="45" y="70" width="50" height="50" as="geometry" />
        </mxCell>
        <mxCell id="_wPe-hq4PQfQlqKdEgOh-19" value="&lt;span style=&quot;font-size: 14px;&quot;&gt;Salle de repos&lt;br&gt;&lt;/span&gt;" style="swimlane;horizontal=0;whiteSpace=wrap;html=1;" vertex="1" parent="1">
          <mxGeometry x="-1130" y="20" width="480" height="370" as="geometry" />
        </mxCell>
        <mxCell id="_wPe-hq4PQfQlqKdEgOh-24" value="" style="sketch=0;pointerEvents=1;shadow=0;dashed=0;html=1;strokeColor=none;fillColor=#505050;labelPosition=center;verticalLabelPosition=bottom;verticalAlign=top;outlineConnect=0;align=center;shape=mxgraph.office.devices.workstation_pc;" vertex="1" parent="_wPe-hq4PQfQlqKdEgOh-19">
          <mxGeometry x="30" y="5.5" width="53" height="59" as="geometry" />
        </mxCell>
        <mxCell id="_wPe-hq4PQfQlqKdEgOh-23" value="" style="sketch=0;pointerEvents=1;shadow=0;dashed=0;html=1;strokeColor=none;fillColor=#505050;labelPosition=center;verticalLabelPosition=bottom;verticalAlign=top;outlineConnect=0;align=center;shape=mxgraph.office.devices.workstation_pc;" vertex="1" parent="_wPe-hq4PQfQlqKdEgOh-19">
          <mxGeometry x="100" y="5.5" width="53" height="59" as="geometry" />
        </mxCell>
        <mxCell id="_wPe-hq4PQfQlqKdEgOh-22" value="" style="sketch=0;pointerEvents=1;shadow=0;dashed=0;html=1;strokeColor=none;fillColor=#505050;labelPosition=center;verticalLabelPosition=bottom;verticalAlign=top;outlineConnect=0;align=center;shape=mxgraph.office.devices.workstation_pc;" vertex="1" parent="_wPe-hq4PQfQlqKdEgOh-19">
          <mxGeometry x="170" y="5.5" width="53" height="59" as="geometry" />
        </mxCell>
        <mxCell id="_wPe-hq4PQfQlqKdEgOh-21" value="" style="sketch=0;pointerEvents=1;shadow=0;dashed=0;html=1;strokeColor=none;fillColor=#505050;labelPosition=center;verticalLabelPosition=bottom;verticalAlign=top;outlineConnect=0;align=center;shape=mxgraph.office.devices.workstation_pc;" vertex="1" parent="_wPe-hq4PQfQlqKdEgOh-19">
          <mxGeometry x="240" y="5.5" width="53" height="59" as="geometry" />
        </mxCell>
        <mxCell id="_wPe-hq4PQfQlqKdEgOh-20" value="" style="sketch=0;pointerEvents=1;shadow=0;dashed=0;html=1;strokeColor=none;fillColor=#505050;labelPosition=center;verticalLabelPosition=bottom;verticalAlign=top;outlineConnect=0;align=center;shape=mxgraph.office.devices.workstation_pc;" vertex="1" parent="_wPe-hq4PQfQlqKdEgOh-19">
          <mxGeometry x="310" y="5.5" width="53" height="59" as="geometry" />
        </mxCell>
        <mxCell id="_wPe-hq4PQfQlqKdEgOh-25" value="" style="verticalLabelPosition=bottom;html=1;verticalAlign=top;align=center;strokeColor=none;fillColor=#00BEF2;shape=mxgraph.azure.laptop;pointerEvents=1;" vertex="1" parent="_wPe-hq4PQfQlqKdEgOh-19">
          <mxGeometry x="420" y="320" width="50" height="30" as="geometry" />
        </mxCell>
        <mxCell id="_wPe-hq4PQfQlqKdEgOh-26" value="" style="verticalLabelPosition=bottom;html=1;verticalAlign=top;align=center;strokeColor=none;fillColor=#00BEF2;shape=mxgraph.azure.laptop;pointerEvents=1;" vertex="1" parent="_wPe-hq4PQfQlqKdEgOh-19">
          <mxGeometry x="350" y="320" width="50" height="30" as="geometry" />
        </mxCell>
        <mxCell id="_wPe-hq4PQfQlqKdEgOh-28" value="" style="verticalLabelPosition=bottom;html=1;verticalAlign=top;align=center;strokeColor=none;fillColor=#00BEF2;shape=mxgraph.azure.laptop;pointerEvents=1;" vertex="1" parent="_wPe-hq4PQfQlqKdEgOh-19">
          <mxGeometry x="280" y="320" width="50" height="30" as="geometry" />
        </mxCell>
        <mxCell id="_wPe-hq4PQfQlqKdEgOh-27" value="" style="verticalLabelPosition=bottom;html=1;verticalAlign=top;align=center;strokeColor=none;fillColor=#00BEF2;shape=mxgraph.azure.laptop;pointerEvents=1;" vertex="1" parent="_wPe-hq4PQfQlqKdEgOh-19">
          <mxGeometry x="215" y="320" width="50" height="30" as="geometry" />
        </mxCell>
        <mxCell id="_wPe-hq4PQfQlqKdEgOh-29" value="" style="verticalLabelPosition=bottom;html=1;verticalAlign=top;align=center;strokeColor=none;fillColor=#00BEF2;shape=mxgraph.azure.tablet;pointerEvents=1;" vertex="1" parent="_wPe-hq4PQfQlqKdEgOh-19">
          <mxGeometry x="33" y="255" width="50" height="37.5" as="geometry" />
        </mxCell>
        <mxCell id="_wPe-hq4PQfQlqKdEgOh-31" value="" style="html=1;verticalLabelPosition=bottom;align=center;labelBackgroundColor=#ffffff;verticalAlign=top;strokeWidth=2;strokeColor=#0080F0;shadow=0;dashed=0;shape=mxgraph.ios7.icons.smartphone;" vertex="1" parent="_wPe-hq4PQfQlqKdEgOh-19">
          <mxGeometry x="47.5" y="150" width="18" height="30" as="geometry" />
        </mxCell>
        <mxCell id="_wPe-hq4PQfQlqKdEgOh-34" value="" style="points=[[0.22,0.185,0],[0.5,0,0],[0.78,0.185,0],[0.975,0.49,0],[1,0.73,0],[0.975,0.97,0],[0.5,1,0],[0.025,0.97,0],[0,0.73,0],[0.025,0.49,0]];verticalLabelPosition=bottom;sketch=0;html=1;verticalAlign=top;aspect=fixed;align=center;pointerEvents=1;shape=mxgraph.cisco19.printer;fillColor=#005073;strokeColor=none;" vertex="1" parent="_wPe-hq4PQfQlqKdEgOh-19">
          <mxGeometry x="420" y="210" width="50" height="45" as="geometry" />
        </mxCell>
        <mxCell id="_wPe-hq4PQfQlqKdEgOh-33" value="" style="points=[[0.03,0.36,0],[0.18,0,0],[0.5,0.34,0],[0.82,0,0],[0.97,0.36,0],[1,0.67,0],[0.975,0.975,0],[0.5,1,0],[0.025,0.975,0],[0,0.67,0]];verticalLabelPosition=bottom;sketch=0;html=1;verticalAlign=top;aspect=fixed;align=center;pointerEvents=1;shape=mxgraph.cisco19.wireless_access_point;fillColor=#005073;strokeColor=none;" vertex="1" parent="_wPe-hq4PQfQlqKdEgOh-19">
          <mxGeometry x="420" y="120" width="50" height="50" as="geometry" />
        </mxCell>
        <mxCell id="_wPe-hq4PQfQlqKdEgOh-32" value="" style="image;aspect=fixed;perimeter=ellipsePerimeter;html=1;align=center;shadow=0;dashed=0;spacingTop=3;image=img/lib/active_directory/switch.svg;" vertex="1" parent="_wPe-hq4PQfQlqKdEgOh-19">
          <mxGeometry x="420" y="10" width="50" height="50" as="geometry" />
        </mxCell>
        <mxCell id="_wPe-hq4PQfQlqKdEgOh-30" value="" style="html=1;verticalLabelPosition=bottom;align=center;labelBackgroundColor=#ffffff;verticalAlign=top;strokeWidth=2;strokeColor=#0080F0;shadow=0;dashed=0;shape=mxgraph.ios7.icons.smartphone;" vertex="1" parent="_wPe-hq4PQfQlqKdEgOh-19">
          <mxGeometry x="47.5" y="200" width="18" height="30" as="geometry" />
        </mxCell>
      </root>
    </mxGraphModel>
  </diagram>
</mxfile>
